<svg xmlns="http://www.w3.org/2000/svg" viewBox="0 0 40 24.62"><defs><style>.cls-1{fill:#fff;}</style></defs><g id="Capa_2" data-name="Capa 2"><g id="Capa_1-2" data-name="Capa 1"><path class="cls-1" d="M39.52,23.83a2.24,2.24,0,0,1-1.42-.5,2.13,2.13,0,0,1-.79-1.4h0L34.89,2.55h-.27L26.09,19.78,21.63,11h0a.15.15,0,0,1,.12-.15,1.1,1.1,0,0,1,.7.11.17.17,0,0,0,.24-.13c.14-.8-.64-1.73-1.26-2.44-.34-.41-1-1.1-1.36-1.65A6.6,6.6,0,0,1,19,4.5a2.42,2.42,0,0,1,1-2.84,1,1,0,0,1,1,0,.5.5,0,0,1,.19.69.47.47,0,0,1-.06.09.18.18,0,0,0,.07.27.71.71,0,0,0,.27.05.91.91,0,0,0,.81-.83A1.79,1.79,0,0,0,21.55.46a2.48,2.48,0,0,0-2.32-.3,3.18,3.18,0,0,0-2.1,2.39c0,.16-.08.34-.11.52v0l0,.29v0a7.9,7.9,0,0,0,.13,1.91h0a3.68,3.68,0,0,0-.31-.38,5.42,5.42,0,0,0-2.07-1.36A10.33,10.33,0,0,0,11,3H6.49a3.13,3.13,0,0,0-2.8-1A2.48,2.48,0,0,0,1.76,3.29a1.82,1.82,0,0,0,0,1.6.92.92,0,0,0,1.1.38.6.6,0,0,0,.22-.18A.17.17,0,0,0,3,4.82l-.1-.05a.5.5,0,0,1-.14-.71,1,1,0,0,1,.9-.41A2.4,2.4,0,0,1,5.9,5.71a6.68,6.68,0,0,1,0,2.48c-.09.66-.34,1.56-.46,2.09-.22.92-.49,2.1,0,2.74a.16.16,0,0,0,.27,0,1.14,1.14,0,0,1,.57-.41h.1v1.23A21.68,21.68,0,0,0,3,15.36c-2.56,1.43-3.73,4-2.63,6.08a2.79,2.79,0,0,0,3.16,1.42,2,2,0,0,0,1.55-2.4c-.38-1.37-1.82-.73-1.82-.73s-.25-.28,0-1.29a3.83,3.83,0,0,1,1.38-2,9.51,9.51,0,0,1,1.76-1v6.52a1.79,1.79,0,0,1-.58,1.35,1.88,1.88,0,0,1-1.36.56H4.12l0,.3h8.1a10.52,10.52,0,0,0,4-.7c.14-.05.26-.11.39-.17a5.52,5.52,0,0,0,2.2-1.82,5.29,5.29,0,0,0,.89-3.05,6,6,0,0,0-.63-2.79,5.39,5.39,0,0,0-1.82-2h0a6.41,6.41,0,0,0-1.44-.7,7,7,0,0,0-1.33-.3A4.69,4.69,0,0,0,15.93,12l.22-.15a4.25,4.25,0,0,0,1.29-1.51,3.12,3.12,0,0,0,.18-.42,3.43,3.43,0,0,0,.17-.57l7.64,15.28h.3a5.67,5.67,0,0,1,.32-1.39,18.1,18.1,0,0,1,.77-1.79l6.11-12.5,1.3,13.6v0a1.34,1.34,0,0,1-.34.89,1,1,0,0,1-.84.41h-.46v.27H40v-.3ZM15.57,15a4.79,4.79,0,0,1,.34.53,5.21,5.21,0,0,1,.57,2.58,5.66,5.66,0,0,1-.57,2.66,3.68,3.68,0,0,1-1.23,1.39,4.23,4.23,0,0,1-.42.25,5.65,5.65,0,0,1-2.58.54H9.23V14.44l2.83-.73a3.86,3.86,0,0,1,1-.14,2.42,2.42,0,0,1,1.38.39A4.18,4.18,0,0,1,15.57,15Zm-1.19-4.46a3.21,3.21,0,0,1-1.15,1.31,4.55,4.55,0,0,1-1.49.64l-.17,0h0l-.19,0h0l-1.06.22-1,.23v-9h1.36a5.2,5.2,0,0,1,2.31.47,3.14,3.14,0,0,1,1.44,1.42,5.28,5.28,0,0,1,.48,2.38A4.82,4.82,0,0,1,14.38,10.54Z"/></g></g></svg>